<?xml version="1.0" standalone="no"?>
<!DOCTYPE svg PUBLIC "-//W3C//DTD SVG 1.1//EN" "http://www.w3.org/Graphics/SVG/1.1/DTD/svg11.dtd" >
<svg xmlns="http://www.w3.org/2000/svg">
<metadata>Generated by IcoMoon</metadata>
<defs>
<font id="lwicons" horiz-adv-x="1024">
<font-face units-per-em="1024" ascent="960" descent="-64" />
<missing-glyph horiz-adv-x="1024" />
<glyph unicode="&#x20;" horiz-adv-x="512" d="" />
<glyph unicode="&#xe900;" glyph-name="withdraw_swift" d="M785.067 699.733c-8.533 8.533-21.333 8.533-29.867 0s-8.533-21.333 0-29.867l68.267-68.267h-162.133c-12.8 0-21.333-8.533-21.333-21.333s8.533-21.333 21.333-21.333h162.133l-68.267-68.267c-8.533-8.533-8.533-21.333 0-29.867 4.267-4.267 8.533-4.267 17.067-4.267s12.8 0 17.067 4.267l123.733 123.733-128 115.2zM550.4 405.333c0 8.533 4.267 12.8 4.267 21.333s0 12.8-4.267 21.333h-85.333c-4.267 59.733-12.8 115.2-34.133 157.867-21.333 8.533-46.933 12.8-72.533 12.8 25.6 0 59.733-64 64-170.667h-128c4.267 106.667 38.4 170.667 64 170.667-25.6 0-46.933-4.267-72.533-12.8-21.333-42.667-34.133-98.133-34.133-157.867h-85.333c0-8.533-4.267-12.8-4.267-21.333s0-12.8 4.267-21.333h85.333c4.267-59.733 12.8-115.2 34.133-157.867 21.333-8.533 46.933-12.8 72.533-12.8-25.6 0-59.733 64-64 170.667h128c-4.267-106.667-38.4-170.667-64-170.667 25.6 0 46.933 4.267 72.533 12.8 21.333 42.667 34.133 98.133 34.133 157.867h85.333zM362.667 661.333c-128 0-234.667-106.667-234.667-234.667s106.667-234.667 234.667-234.667 234.667 106.667 234.667 234.667c0 128-106.667 234.667-234.667 234.667zM435.2 247.467c-21.333-8.533-46.933-12.8-72.533-12.8s-46.933 4.267-72.533 12.8c-64 25.6-110.933 85.333-119.467 157.867 0 8.533-4.267 12.8-4.267 21.333s0 12.8 4.267 21.333c8.533 72.533 55.467 132.267 119.467 157.867 21.333 8.533 46.933 12.8 72.533 12.8s46.933-4.267 72.533-12.8c64-25.6 110.933-85.333 119.467-157.867 0-8.533 4.267-12.8 4.267-21.333s0-12.8-4.267-21.333c-8.533-72.533-55.467-132.267-119.467-157.867z" />
<glyph unicode="&#xe903;" glyph-name="withdraw_bl_transfer" d="M763.733 699.733c-8.533 8.533-21.333 8.533-29.867 0s-8.533-21.333 0-29.867l68.267-68.267h-162.133c-12.8 0-21.333-8.533-21.333-21.333s8.533-21.333 21.333-21.333h162.133l-68.267-68.267c-8.533-8.533-8.533-21.333 0-29.867 4.267-4.267 8.533-4.267 17.067-4.267s12.8 0 17.067 4.267l123.733 123.733-128 115.2zM256 384c-34.133 21.333-59.733 59.733-64 102.4-8.533 76.8 46.933 145.067 123.733 153.6 64 8.533 119.467-29.867 145.067-85.333 17.067 0 34.133-4.267 46.933-12.8-21.333 89.6-102.4 149.333-196.267 140.8-98.133-12.8-170.667-102.4-157.867-200.533 8.533-64 51.2-119.467 110.933-145.067-4.267 12.8-4.267 25.6-4.267 38.4-4.267 0-4.267 4.267-4.267 8.533zM507.733 541.867c-17.067 4.267-29.867 8.533-46.933 12.8-8.533 0-12.8 4.267-21.333 4.267-98.133 0-174.933-76.8-179.2-170.667 0-4.267 0-8.533 0-12.8 0-12.8 0-25.6 4.267-38.4 17.067-81.067 89.6-140.8 174.933-140.8 98.133 0 179.2 81.067 179.2 179.2 0 72.533-46.933 136.533-110.933 166.4zM439.467 234.667c-76.8 0-136.533 64-136.533 136.533s64 136.533 136.533 136.533 136.533-64 136.533-136.533-64-136.533-136.533-136.533z" />
<glyph unicode="&#xe906;" glyph-name="watchlist" d="M789.333 810.667c0 46.933-38.4 85.333-85.333 85.333h-512c-46.933 0-85.333-38.4-85.333-85.333v-597.333c0-46.933 38.4-85.333 85.333-85.333h345.6l256 256v426.667zM746.667 401.067l-230.4-230.4h-324.267c-21.333 0-42.667 17.067-42.667 42.667v597.333c0 21.333 17.067 42.667 42.667 42.667h512c25.6 0 42.667-17.067 42.667-42.667v-409.6zM277.333 554.667h341.333v-42.667h-341.333v42.667zM917.333 170.667h-128v128h-42.667v-128h-128v-42.667h128v-128h42.667v128h128zM277.333 682.667h341.333v-42.667h-341.333v42.667zM277.333 426.667h341.333v-42.667h-341.333v42.667z" />
<glyph unicode="&#xe907;" glyph-name="trading_sell" d="M806.4 699.733c-8.533 8.533-21.333 8.533-29.867 0s-8.533-21.333 0-29.867l68.267-68.267h-162.133c-12.8 0-21.333-8.533-21.333-21.333s8.533-21.333 21.333-21.333h162.133l-68.267-68.267c-8.533-8.533-8.533-21.333 0-29.867 4.267-4.267 8.533-4.267 17.067-4.267s12.8 0 17.067 4.267l123.733 123.733-128 115.2zM170.667 618.667c0 12.8 8.533 21.333 21.333 21.333h256c12.8 0 21.333-8.533 21.333-21.333v-42.667h42.667v42.667c0 34.133-29.867 64-64 64h-256c-34.133 0-64-29.867-64-64v-42.667h42.667v42.667zM554.667 576h-426.667v-320c0-34.133 29.867-64 64-64 0 0 0 0 0 0h362.667c34.133 0 64 29.867 64 64v256c0 34.133-29.867 64-64 64zM576 256c0-12.8-8.533-21.333-21.333-21.333h-362.667c0 0 0 0 0 0-12.8 0-21.333 8.533-21.333 21.333v277.333h384c12.8 0 21.333-8.533 21.333-21.333v-256zM512 384c0-23.564-19.103-42.667-42.667-42.667s-42.667 19.103-42.667 42.667c0 23.564 19.103 42.667 42.667 42.667s42.667-19.103 42.667-42.667z" />
<glyph unicode="&#xe90f;" glyph-name="telegram" d="M836.267 746.667l-659.911-256c-5.689-2.844-8.533-5.689-11.378-11.378-2.844-8.533 0-19.911 11.378-25.6l162.133-59.733 62.578-199.111c0-2.844 2.844-5.689 2.844-5.689 5.689-8.533 19.911-8.533 25.6-2.844l91.022 73.956c8.533 8.533 22.756 8.533 31.289 0l162.133-116.622c2.844-2.844 5.689-2.844 8.533-2.844 11.378-2.844 19.911 5.689 22.756 14.222l119.467 568.889c0 17.067-14.222 28.444-28.444 22.756zM711.111 615.822l-258.844-241.778c-8.533-8.533-14.222-19.911-17.067-31.289l-8.533-65.422c0-8.533-14.222-8.533-17.067 0l-34.133 119.467c-2.844 14.222 2.844 28.444 14.222 36.978l315.733 193.422c5.689 0 11.378-8.533 5.689-11.378z" />
<glyph unicode="&#xe910;" glyph-name="slack" d="M483.045 389.843l-28.9 86.307 91.701 30.706 28.9-86.307-91.701-30.706zM824.889 541.867c-71.111 233.244-170.667 287.289-403.911 216.178s-287.289-170.667-216.178-403.911 170.667-287.289 403.911-216.178 284.444 170.667 216.178 403.911zM705.422 391.111v0l-42.667-14.222 14.222-45.511c5.689-17.067-2.844-36.978-22.756-45.511-2.844 0-8.533-2.844-11.378-2.844-14.222 0-28.444 11.378-31.289 22.756l-14.222 45.511-91.022-31.289 14.222-45.511c5.689-17.067-2.844-36.978-22.756-45.511-2.844 0-8.533-2.844-11.378-2.844-14.222 0-28.444 11.378-31.289 22.756l-14.222 45.511-42.667-14.222c-2.844 0-8.533-2.844-11.378-2.844-14.222 0-28.444 11.378-31.289 22.756-5.689 17.067 2.844 36.978 22.756 45.511l42.667 14.222-28.444 88.178-42.667-14.222c-2.844 0-8.533-2.844-11.378-2.844-14.222 0-28.444 11.378-31.289 22.756-5.689 17.067 2.844 36.978 22.756 45.511l42.667 14.222-14.222 45.511c-5.689 17.067 2.844 36.978 22.756 45.511 17.067 5.689 36.978-2.844 45.511-22.756l14.222-45.511 91.022 31.289-14.222 45.511c-5.689 17.067 2.844 36.978 22.756 45.511 17.067 5.689 36.978-2.844 45.511-22.756l14.222-45.511 42.667 14.222c17.067 5.689 36.978-2.844 45.511-22.756 5.689-17.067-2.844-36.978-22.756-45.511l-42.667-14.222 28.444-88.178 42.667 14.222c17.067 5.689 36.978-2.844 45.511-22.756-5.689-8.533-14.222-28.444-34.133-34.133z" />
<glyph unicode="&#xe911;" glyph-name="settle_coins" d="M362.667 661.333c-128 0-234.667-106.667-234.667-234.667s106.667-234.667 234.667-234.667 234.667 106.667 234.667 234.667c0 128-106.667 234.667-234.667 234.667zM362.667 234.667c-106.667 0-192 85.333-192 192s85.333 192 192 192 192-85.333 192-192-85.333-192-192-192zM384 439.467v119.467c0 12.8-8.533 21.333-21.333 21.333s-21.333-8.533-21.333-21.333v-136.533l93.867-72.533c4.267-4.267 8.533-4.267 12.8-4.267 8.533 0 12.8 4.267 17.067 8.533 8.533 8.533 4.267 21.333-4.267 29.867l-76.8 55.467zM704 661.333h192c12.8 0 21.333 8.533 21.333 21.333s-8.533 21.333-21.333 21.333h-192c-12.8 0-21.333-8.533-21.333-21.333s8.533-21.333 21.333-21.333zM896 597.333h-192c-12.8 0-21.333-8.533-21.333-21.333s8.533-21.333 21.333-21.333h192c12.8 0 21.333 8.533 21.333 21.333s-8.533 21.333-21.333 21.333zM896 490.667h-192c-12.8 0-21.333-8.533-21.333-21.333s8.533-21.333 21.333-21.333h192c12.8 0 21.333 8.533 21.333 21.333s-8.533 21.333-21.333 21.333z" />
<glyph unicode="&#xe916;" glyph-name="search" d="M576 832c-166.4 0-298.667-132.267-298.667-298.667 0-72.533 25.6-140.8 72.533-196.267l-170.667-170.667c-17.067-17.067-17.067-42.667 0-59.733 8.533-8.533 21.333-12.8 29.867-12.8s21.333 4.267 29.867 12.8l174.933 174.933c46.933-29.867 102.4-46.933 162.133-46.933 166.4 0 298.667 132.267 298.667 298.667s-132.267 298.667-298.667 298.667zM576 311.467c-123.733 0-221.867 98.133-221.867 221.867s98.133 221.867 221.867 221.867 221.867-98.133 221.867-221.867-98.133-221.867-221.867-221.867z" />
<glyph unicode="&#xe917;" glyph-name="save_template" d="M384 768h-85.333c-59.733 0-106.667-46.933-106.667-106.667v-85.333c0-59.733 46.933-106.667 106.667-106.667h85.333c59.733 0 106.667 46.933 106.667 106.667v85.333c0 59.733-46.933 106.667-106.667 106.667zM448 576c0-34.133-29.867-64-64-64h-85.333c-34.133 0-64 29.867-64 64v85.333c0 34.133 29.867 64 64 64h85.333c34.133 0 64-29.867 64-64v-85.333zM384 426.667h-85.333c-59.733 0-106.667-46.933-106.667-106.667v-85.333c0-59.733 46.933-106.667 106.667-106.667h85.333c59.733 0 106.667 46.933 106.667 106.667v85.333c0 59.733-46.933 106.667-106.667 106.667zM448 234.667c0-34.133-29.867-64-64-64h-85.333c-34.133 0-64 29.867-64 64v85.333c0 34.133 29.867 64 64 64h85.333c34.133 0 64-29.867 64-64v-85.333zM725.333 768h-85.333c-59.733 0-106.667-46.933-106.667-106.667v-85.333c0-59.733 46.933-106.667 106.667-106.667h85.333c59.733 0 106.667 46.933 106.667 106.667v85.333c0 59.733-46.933 106.667-106.667 106.667zM789.333 576c0-34.133-29.867-64-64-64h-85.333c-34.133 0-64 29.867-64 64v85.333c0 34.133 29.867 64 64 64h85.333c34.133 0 64-29.867 64-64v-85.333zM725.333 426.667h-85.333c-59.733 0-106.667-46.933-106.667-106.667v-85.333c0-59.733 46.933-106.667 106.667-106.667h85.333c59.733 0 106.667 46.933 106.667 106.667v85.333c0 59.733-46.933 106.667-106.667 106.667zM789.333 234.667c0-34.133-29.867-64-64-64h-85.333c-34.133 0-64 29.867-64 64v85.333c0 34.133 29.867 64 64 64h85.333c34.133 0 64-29.867 64-64v-85.333z" />
<glyph unicode="&#xe918;" glyph-name="reverse" d="M810.667 533.333c0 25.6-17.067 42.667-42.667 42.667h-384l76.8 102.4c12.8 17.067 8.533 46.933-8.533 59.733s-46.933 8.533-59.733-8.533l-179.2-238.933h554.667c25.6 0 42.667 17.067 42.667 42.667zM213.333 362.667c0-25.6 17.067-42.667 42.667-42.667h384l-76.8-102.4c-12.8-17.067-8.533-46.933 8.533-59.733 8.533-4.267 17.067-8.533 25.6-8.533 12.8 0 25.6 4.267 34.133 17.067l179.2 238.933h-554.667c-25.6 0-42.667-17.067-42.667-42.667z" />
<glyph unicode="&#xe919;" glyph-name="rename" d="M405.333 648.533c-8.533 17.067-34.133 17.067-38.4 0l-170.667-384c-4.267-12.8 0-21.333 12.8-29.867 12.8-4.267 21.333 0 29.867 12.8l59.733 136.533h179.2l59.733-136.533c4.267-8.533 12.8-12.8 21.333-12.8 4.267 0 4.267 0 8.533 0 12.8 4.267 17.067 17.067 12.8 29.867l-174.933 384zM311.467 426.667l72.533 162.133 72.533-162.133h-145.067zM832 170.667h-64v554.667h64c12.8 0 21.333 8.533 21.333 21.333s-8.533 21.333-21.333 21.333h-170.667c-12.8 0-21.333-8.533-21.333-21.333s8.533-21.333 21.333-21.333h64v-554.667h-64c-12.8 0-21.333-8.533-21.333-21.333s8.533-21.333 21.333-21.333h170.667c12.8 0 21.333 8.533 21.333 21.333s-8.533 21.333-21.333 21.333z" />
<glyph unicode="&#xe91a;" glyph-name="reddit" d="M963.2 553.6c-48 38.4-118.4 25.6-156.8-22.4-73.6 44.8-169.6 73.6-278.4 76.8l64 198.4 160-41.6c3.2-51.2 44.8-92.8 96-92.8 54.4 0 96 41.6 96 96s-41.6 96-96 96c-38.4 0-70.4-22.4-86.4-57.6l-176 44.8c-12.8 3.2-22.4-3.2-25.6-16l-73.6-230.4c-102.4-3.2-195.2-32-265.6-76.8v0c-12.8 16-28.8 28.8-44.8 35.2-57.6 25.6-121.6-3.2-147.2-60.8s3.2-121.6 60.8-147.2c-3.2-12.8-3.2-25.6-3.2-41.6 0-160 192-288 432-288s432 128 432 288c0 12.8 0 28.8-3.2 41.6 19.2 6.4 35.2 19.2 44.8 35.2 32 57.6 19.2 124.8-28.8 163.2zM304 384c0 35.2 28.8 64 64 64s64-28.8 64-64-28.8-64-64-64-64 28.8-64 64zM668.8 176c-38.4-32-96-51.2-156.8-51.2s-121.6 19.2-156.8 51.2c-9.6 6.4-9.6 22.4-3.2 32s22.4 9.6 32 3.2c28.8-25.6 76.8-38.4 131.2-38.4s99.2 16 131.2 38.4c9.6 6.4 22.4 6.4 32-3.2 3.2-12.8 0-25.6-9.6-32zM656 320c-35.2 0-64 28.8-64 64s28.8 64 64 64 64-28.8 64-64-28.8-64-64-64z" />
<glyph unicode="&#xe91b;" glyph-name="qr" d="M810.667 789.333h-298.667v-298.667h298.667v298.667zM768 533.333h-213.333v213.333h213.333v-213.333zM170.667 149.333h298.667v298.667h-298.667v-298.667zM213.333 405.333h213.333v-213.333h-213.333v213.333zM170.667 490.667h298.667v298.667h-298.667v-298.667zM213.333 746.667h213.333v-213.333h-213.333v213.333zM597.333 704h128v-128h-128v128zM256 362.667h128v-128h-128v128zM256 704h128v-128h-128v128zM768 320h85.333v128h-128v-85.333h42.667zM768 234.667h85.333v-85.333h-85.333v85.333zM725.333 320v42.667h-85.333v85.333h-128v-341.333h213.333v85.333h-42.667v42.667h85.333v85.333z" />
<glyph unicode="&#xe91c;" glyph-name="notificaton" d="M844.8 213.333h-674.133c-25.6 0-42.667-17.067-42.667-42.667s17.067-42.667 42.667-42.667h674.133c25.6 0 42.667 17.067 42.667 42.667s-17.067 42.667-42.667 42.667zM256 298.667c25.6 0 42.667 17.067 42.667 42.667v170.667c0 119.467 93.867 213.333 213.333 213.333s213.333-93.867 213.333-213.333v-170.667c0-25.6 17.067-42.667 42.667-42.667s42.667 17.067 42.667 42.667v170.667c0 149.333-110.933 273.067-256 294.4 0 0 0 0 0 4.267v42.667c0 25.6-17.067 42.667-42.667 42.667s-42.667-17.067-42.667-42.667v-42.667c0 0 0-4.267 0-4.267-145.067-21.333-256-145.067-256-294.4v-170.667c0-25.6 17.067-42.667 42.667-42.667zM512 0c46.933 0 85.333 38.4 85.333 85.333h-170.667c0-46.933 38.4-85.333 85.333-85.333z" />
<glyph unicode="&#xe91d;" glyph-name="menu" d="M853.333 490.667h-682.667c-25.6 0-42.667-17.067-42.667-42.667s17.067-42.667 42.667-42.667h682.667c25.6 0 42.667 17.067 42.667 42.667s-17.067 42.667-42.667 42.667zM853.333 277.333h-682.667c-25.6 0-42.667-17.067-42.667-42.667s17.067-42.667 42.667-42.667h682.667c25.6 0 42.667 17.067 42.667 42.667s-17.067 42.667-42.667 42.667zM170.667 618.667h682.667c25.6 0 42.667 17.067 42.667 42.667s-17.067 42.667-42.667 42.667h-682.667c-25.6 0-42.667-17.067-42.667-42.667s17.067-42.667 42.667-42.667z" />
<glyph unicode="&#xe91e;" glyph-name="finance" d="M768 302.933c-12.8 0-21.333-8.533-21.333-21.333 0-51.2-98.133-106.667-234.667-106.667s-234.667 55.467-234.667 106.667c0 12.8-8.533 21.333-21.333 21.333s-21.333-8.533-21.333-21.333c0-85.333 123.733-149.333 277.333-149.333s277.333 64 277.333 149.333c0 12.8-8.533 21.333-21.333 21.333zM768 469.333c-12.8 0-21.333-8.533-21.333-21.333 0-51.2-98.133-106.667-234.667-106.667s-234.667 55.467-234.667 106.667c0 12.8-8.533 21.333-21.333 21.333s-21.333-8.533-21.333-21.333c0-85.333 123.733-149.333 277.333-149.333s277.333 64 277.333 149.333c0 12.8-8.533 21.333-21.333 21.333zM512 469.333c153.6 0 277.333 64 277.333 149.333s-123.733 149.333-277.333 149.333c-153.6 0-277.333-64-277.333-149.333s123.733-149.333 277.333-149.333zM512 725.333c136.533 0 234.667-55.467 234.667-106.667s-98.133-106.667-234.667-106.667-234.667 55.467-234.667 106.667 98.133 106.667 234.667 106.667z" />
<glyph unicode="&#xe91f;" glyph-name="fav" d="M866.133 546.133c-4.267 8.533-12.8 21.333-38.4 21.333l-209.067 4.267-68.267 200.533c-8.533 25.6-25.6 29.867-34.133 29.867 0 0 0 0 0 0-8.533 0-25.6-4.267-34.133-29.867l-68.267-200.533-209.067-4.267c-29.867 0-38.4-12.8-38.4-21.333-4.267-8.533-4.267-25.6 17.067-42.667l166.4-128-59.733-200.533c-8.533-25.6 4.267-38.4 8.533-46.933 4.267-4.267 8.533-4.267 17.067-4.267s17.067 4.267 29.867 8.533l174.933 119.467 174.933-119.467c21.333-17.067 38.4-8.533 46.933-4.267s17.067 17.067 8.533 46.933l-59.733 200.533 166.4 128c12.8 17.067 12.8 34.133 8.533 42.667zM631.467 392.533l64-213.333-183.467 128-183.467-128 64 213.333-174.933 132.267 221.867 4.267 72.533 209.067 72.533-209.067 221.867-4.267-174.933-132.267z" />
<glyph unicode="&#xe920;" glyph-name="fav_fill" d="M512 281.6l-183.467-128c-21.333-12.8-29.867-4.267-21.333 17.067l64 217.6-179.2 136.533c-17.067 12.8-12.8 25.6 8.533 25.6l226.133 4.267 72.533 213.333c8.533 21.333 21.333 21.333 29.867 0l72.533-213.333 226.133-4.267c21.333 0 25.6-12.8 8.533-25.6l-179.2-136.533 64-217.6c8.533-21.333-4.267-29.867-21.333-17.067l-187.733 128z" />
<glyph unicode="&#xe921;" glyph-name="details" d="M512 810.667c-200.533 0-362.667-162.133-362.667-362.667s162.133-362.667 362.667-362.667c200.533 0 362.667 162.133 362.667 362.667s-162.133 362.667-362.667 362.667zM512 128c-174.933 0-320 145.067-320 320s145.067 320 320 320 320-145.067 320-320-145.067-320-320-320zM533.333 512h-106.667v-42.667h64v-128h-64v-42.667h170.667v42.667h-64zM490.667 618.667h42.667v-64h-42.667v64z" />
<glyph unicode="&#xe922;" glyph-name="deposit_swift" d="M529.067 405.333c0 8.533 4.267 12.8 4.267 21.333s0 12.8-4.267 21.333h-85.333c-4.267 59.733-12.8 115.2-34.133 157.867-21.333 8.533-46.933 12.8-72.533 12.8 25.6 0 59.733-64 64-170.667h-128c4.267 106.667 38.4 170.667 64 170.667-25.6 0-46.933-4.267-72.533-12.8-21.333-42.667-34.133-98.133-34.133-157.867h-85.333c0-8.533-4.267-12.8-4.267-21.333s0-12.8 4.267-21.333h85.333c4.267-59.733 12.8-115.2 34.133-157.867 21.333-8.533 46.933-12.8 72.533-12.8-25.6 0-59.733 64-64 170.667h128c-4.267-106.667-38.4-170.667-64-170.667 25.6 0 46.933 4.267 72.533 12.8 21.333 42.667 34.133 98.133 34.133 157.867h85.333zM341.333 661.333c-128 0-234.667-106.667-234.667-234.667s106.667-234.667 234.667-234.667 234.667 106.667 234.667 234.667c0 128-106.667 234.667-234.667 234.667zM413.867 247.467c-21.333-8.533-46.933-12.8-72.533-12.8s-46.933 4.267-72.533 12.8c-64 25.6-110.933 85.333-119.467 157.867 0 8.533-4.267 12.8-4.267 21.333s0 12.8 4.267 21.333c8.533 72.533 55.467 132.267 119.467 157.867 21.333 8.533 46.933 12.8 72.533 12.8s46.933-4.267 72.533-12.8c64-25.6 110.933-85.333 119.467-157.867 0-8.533 4.267-12.8 4.267-21.333s0-12.8-4.267-21.333c-8.533-72.533-55.467-132.267-119.467-157.867zM874.667 597.333h-162.133l68.267 68.267c8.533 8.533 8.533 21.333 0 29.867s-21.333 8.533-29.867 0l-123.733-123.733 123.733-123.733c4.267-4.267 8.533-4.267 17.067-4.267s12.8 0 17.067 4.267c8.533 8.533 8.533 21.333 0 29.867l-68.267 68.267h162.133c12.8 0 21.333 8.533 21.333 21.333s-12.8 29.867-25.6 29.867z" />
<glyph unicode="&#xe925;" glyph-name="deposit_credit_card" d="M405.333 320h85.333v-42.667h-85.333v42.667zM512 554.667h-320c-34.133 0-64-29.867-64-64v-234.667c0-34.133 29.867-64 64-64h320c34.133 0 64 29.867 64 64v234.667c0 34.133-29.867 64-64 64zM533.333 469.333v-213.333c0-12.8-8.533-21.333-21.333-21.333h-320c-12.8 0-21.333 8.533-21.333 21.333v234.667c0 12.8 8.533 21.333 21.333 21.333h320c12.8 0 21.333-8.533 21.333-21.333v-21.333zM170.667 469.333h362.667v-42.667h-362.667v42.667zM883.2 597.333h-149.333l68.267 68.267c8.533 8.533 8.533 21.333 0 29.867s-21.333 8.533-29.867 0l-123.733-123.733 123.733-123.733c4.267-4.267 8.533-4.267 17.067-4.267s12.8 0 17.067 4.267c8.533 8.533 8.533 21.333 0 29.867l-68.267 68.267h149.333c12.8 0 21.333 8.533 21.333 21.333s-12.8 29.867-25.6 29.867z" />
<glyph unicode="&#xe929;" glyph-name="deposit_bl_transfer" d="M861.867 597.333h-162.133l68.267 68.267c8.533 8.533 8.533 21.333 0 29.867s-21.333 8.533-29.867 0l-123.733-123.733 123.733-123.733c4.267-4.267 8.533-4.267 17.067-4.267s12.8 0 17.067 4.267c8.533 8.533 8.533 21.333 0 29.867l-68.267 68.267h162.133c12.8 0 21.333 8.533 21.333 21.333s-12.8 29.867-25.6 29.867zM243.2 384c-34.133 21.333-59.733 59.733-64 102.4-8.533 76.8 46.933 145.067 123.733 153.6 64 8.533 119.467-29.867 145.067-85.333 17.067 0 34.133-4.267 46.933-12.8-21.333 89.6-102.4 149.333-196.267 140.8-98.133-12.8-170.667-102.4-157.867-200.533 8.533-64 51.2-119.467 110.933-145.067-4.267 12.8-4.267 25.6-4.267 38.4-4.267 0-4.267 4.267-4.267 8.533zM494.933 541.867c-17.067 4.267-29.867 8.533-46.933 12.8-8.533 0-12.8 4.267-21.333 4.267-98.133 0-174.933-76.8-179.2-170.667 0-4.267 0-8.533 0-12.8 0-12.8 0-25.6 4.267-38.4 17.067-81.067 89.6-140.8 174.933-140.8 98.133 0 179.2 81.067 179.2 179.2 0 72.533-46.933 136.533-110.933 166.4zM426.667 234.667c-76.8 0-136.533 64-136.533 136.533s64 136.533 136.533 136.533 136.533-64 136.533-136.533-64-136.533-136.533-136.533z" />
<glyph unicode="&#xe92c;" glyph-name="defrost" d="M622.933 149.333c-4.267 0-8.533 0-12.8 4.267-42.667 34.133-98.133 89.6-140.8 187.733-4.267-34.133-8.533-85.333 12.8-162.133 0-8.533 0-12.8-4.267-17.067s-12.8-8.533-17.067-8.533c-98.133 4.267-204.8 81.067-204.8 226.133 0 128 81.067 192 153.6 247.467 55.467 42.667 102.4 81.067 102.4 140.8 0 8.533 4.267 17.067 12.8 21.333s17.067 4.267 21.333-4.267c68.267-55.467 64-136.533 64-200.533 0-12.8 0-25.6 0-38.4 34.133 34.133 76.8 46.933 98.133 51.2 8.533 0 12.8 0 17.067-8.533 4.267-4.267 4.267-12.8 4.267-21.333-12.8-38.4-4.267-81.067 4.267-128 17.067-85.333 38.4-192-81.067-268.8-8.533-4.267-21.333-12.8-29.867-17.067 8.533-4.267 4.267-4.267 0-4.267zM469.333 422.4c0 0 0 0 0 0 12.8 0 17.067-8.533 21.333-12.8 38.4-110.933 93.867-174.933 136.533-213.333 4.267 4.267 8.533 4.267 12.8 8.533 93.867 64 81.067 140.8 64 226.133-8.533 38.4-12.8 76.8-12.8 115.2-21.333-8.533-51.2-29.867-68.267-64-4.267-8.533-12.8-12.8-21.333-8.533-8.533 0-17.067 8.533-17.067 12.8-8.533 29.867-8.533 59.733-8.533 98.133 0 46.933 0 98.133-25.6 136.533-17.067-51.2-68.267-89.6-110.933-123.733-68.267-51.2-136.533-106.667-136.533-213.333 0-115.2 72.533-166.4 132.267-179.2-29.867 145.067 17.067 209.067 17.067 213.333 4.267 0 8.533 4.267 17.067 4.267z" />
<glyph unicode="&#xe92d;" glyph-name="create" d="M682.667 810.667h-341.333c-106.667 0-192-85.333-192-192v-341.333c0-106.667 85.333-192 192-192h341.333c106.667 0 192 85.333 192 192v341.333c0 106.667-85.333 192-192 192zM832 277.333c0-81.067-68.267-149.333-149.333-149.333h-341.333c-81.067 0-149.333 68.267-149.333 149.333v341.333c0 81.067 68.267 149.333 149.333 149.333h341.333c81.067 0 149.333-68.267 149.333-149.333v-341.333zM533.333 640h-42.667v-170.667h-170.667v-42.667h170.667v-170.667h42.667v170.667h170.667v42.667h-170.667z" />
<glyph unicode="&#xe92e;" glyph-name="back" horiz-adv-x="2731" d="M247.467 533.333h128l281.6 281.6c34.133 34.133 34.133 85.333 0 119.467s-85.333 34.133-119.467 0l-486.4-486.4 486.4-486.4c17.067-17.067 42.667-25.6 59.733-25.6s42.667 8.533 59.733 25.6c34.133 34.133 34.133 85.333 0 119.467l-281.6 281.6h-128v170.667zM2722.133 533.333h-2346.667l-85.333-85.333 85.333-85.333h2346.667zM375.467 533.333h-128v-170.667h128l-85.333 85.333z" />
<glyph unicode="&#xe92f;" glyph-name="arrow_right" d="M377.6 793.6c-12.8 12.8-32 12.8-44.8 0s-12.8-32 0-44.8l294.4-294.4-294.4-294.4c-12.8-12.8-12.8-32 0-44.8 6.4-6.4 12.8-6.4 25.6-6.4s19.2 0 25.6 6.4l345.6 345.6-352 332.8z" />
<glyph unicode="&#xe930;" glyph-name="add" d="M960 512h-384v384c0 38.4-25.6 64-64 64s-64-25.6-64-64v-384h-384c-38.4 0-64-25.6-64-64s25.6-64 64-64h384v-384c0-38.4 25.6-64 64-64s64 25.6 64 64v384h384c38.4 0 64 25.6 64 64s-25.6 64-64 64z" />
<glyph unicode="&#xe931;" glyph-name="actions" d="M810.667 533.333c-46.933 0-85.333-38.4-85.333-85.333s38.4-85.333 85.333-85.333 85.333 38.4 85.333 85.333c0 46.933-38.4 85.333-85.333 85.333zM810.667 405.333c-25.6 0-42.667 17.067-42.667 42.667s17.067 42.667 42.667 42.667 42.667-17.067 42.667-42.667c0-25.6-17.067-42.667-42.667-42.667zM512 533.333c-46.933 0-85.333-38.4-85.333-85.333s38.4-85.333 85.333-85.333c46.933 0 85.333 38.4 85.333 85.333s-38.4 85.333-85.333 85.333zM512 405.333c-25.6 0-42.667 17.067-42.667 42.667s17.067 42.667 42.667 42.667c25.6 0 42.667-17.067 42.667-42.667s-17.067-42.667-42.667-42.667zM213.333 533.333c-46.933 0-85.333-38.4-85.333-85.333s38.4-85.333 85.333-85.333 85.333 38.4 85.333 85.333c0 46.933-38.4 85.333-85.333 85.333zM213.333 405.333c-25.6 0-42.667 17.067-42.667 42.667s17.067 42.667 42.667 42.667 42.667-17.067 42.667-42.667c0-25.6-17.067-42.667-42.667-42.667z" />
<glyph unicode="&#xe932;" glyph-name="chevron-thin-up" d="M132.198 261.581c-13.926-13.722-36.301-13.722-50.125 0s-13.875 35.891 0 49.613l404.89 400.896c13.824 13.722 36.198 13.722 50.125 0l404.89-400.896c13.824-13.722 13.824-35.891 0-49.613-13.875-13.722-36.301-13.722-50.074 0l-379.904 365.619-379.802-365.619z" />
<glyph unicode="&#xe933;" glyph-name="chevron-thin-right" d="M678.4 460.8l-365.619 379.904c-13.722 13.824-13.722 36.198 0 50.125 13.722 13.824 35.891 13.824 49.613 0l400.896-404.89c13.722-13.875 13.722-36.301 0-50.125l-400.896-404.89c-13.722-13.875-35.891-13.824-49.613 0-13.722 13.773-13.722 36.198 0 50.125l365.619 379.75z" />
<glyph unicode="&#xe934;" glyph-name="chevron-thin-left" d="M711.219 80.998c13.722-13.926 13.722-36.301 0-50.125s-35.891-13.875-49.613 0l-400.896 404.89c-13.722 13.824-13.722 36.198 0 50.125l400.896 404.89c13.722 13.824 35.891 13.824 49.613 0 13.722-13.875 13.722-36.301 0-50.125l-365.619-379.853 365.619-379.802z" />
<glyph unicode="&#xe935;" glyph-name="chevron-thin-down" d="M891.802 660.019c13.926 13.722 36.301 13.722 50.125 0s13.875-35.891 0-49.613l-404.89-400.896c-13.824-13.722-36.198-13.722-50.125 0l-404.89 400.896c-13.824 13.722-13.824 35.891 0 49.613 13.875 13.722 36.301 13.722 50.125 0l379.853-365.619 379.802 365.619z" />
<glyph unicode="&#xe936;" glyph-name="github" d="M954.331 704.413c-45.737 78.365-107.777 140.407-186.135 186.139-78.37 45.735-163.926 68.596-256.73 68.596-92.792 0-178.377-22.869-256.73-68.596-78.365-45.73-140.402-107.774-186.139-186.139-45.73-78.363-68.596-163.936-68.596-256.716 0-111.45 32.516-211.669 97.565-300.683 65.041-89.020 149.065-150.619 252.065-184.803 11.989-2.225 20.865-0.66 26.636 4.656 5.773 5.323 8.656 11.989 8.656 19.971 0 1.332-0.114 13.314-0.336 35.961-0.229 22.647-0.336 42.404-0.336 59.261l-15.318-2.65c-9.766-1.789-22.087-2.547-36.962-2.333-14.868 0.208-30.302 1.766-46.283 4.663-15.987 2.871-30.858 9.531-44.622 19.965-13.758 10.434-23.524 24.091-29.297 40.951l-6.659 15.325c-4.439 10.203-11.427 21.537-20.975 33.96-9.547 12.435-19.202 20.865-28.968 25.304l-4.663 3.338c-3.107 2.218-5.99 4.894-8.656 7.998-2.664 3.105-4.658 6.212-5.99 9.323-1.334 3.114-0.229 5.668 3.329 7.672s9.986 2.976 19.314 2.976l13.314-1.99c8.88-1.78 19.864-7.096 32.966-15.98 13.095-8.878 23.86-20.419 32.297-34.62 10.217-18.208 22.526-32.082 36.962-41.629 14.425-9.547 28.968-14.313 43.617-14.313s27.3 1.11 37.96 3.319c10.648 2.221 20.639 5.559 29.967 9.995 3.996 29.759 14.875 52.621 32.628 68.601-25.304 2.659-48.053 6.664-68.26 11.989-20.195 5.332-41.065 13.986-62.595 25.985-21.541 11.982-39.411 26.862-53.614 44.613-14.205 17.76-25.864 41.077-34.958 69.928-9.099 28.863-13.65 62.158-13.65 99.895 0 53.731 17.541 99.454 52.616 137.195-16.431 40.396-14.879 85.68 4.658 135.849 12.876 4 31.97 0.998 57.274-8.987 25.308-9.99 43.838-18.549 55.609-25.644 11.77-7.093 21.201-13.104 28.306-17.979 41.298 11.539 83.917 17.31 127.867 17.31s86.578-5.771 127.879-17.31l25.306 15.976c17.305 10.66 37.741 20.429 61.258 29.309 23.531 8.875 41.524 11.32 53.962 7.32 19.971-50.171 21.751-95.454 5.316-135.849 35.073-37.741 52.621-83.476 52.621-137.195 0-37.736-4.567-71.137-13.653-100.221-9.097-29.090-20.856-52.383-35.28-69.928-14.441-17.543-32.425-32.306-53.955-44.286-21.534-11.989-42.411-20.643-62.606-25.976-20.205-5.332-42.954-9.34-68.258-12.003 23.078-19.971 34.62-51.496 34.62-94.56v-140.507c0-7.982 2.776-14.646 8.332-19.971 5.549-5.316 14.313-6.881 26.302-4.653 103.013 34.179 187.037 95.78 252.077 184.801 65.032 89.013 97.56 189.232 97.56 300.683-0.023 92.769-22.901 178.335-68.61 256.697v0z" />
<glyph unicode="&#xe937;" glyph-name="mail" d="M170.667 810.667h682.667q53 0 90.5-37.5t37.5-90.5v-512q0-53-37.5-90.5t-90.5-37.5h-682.667q-53 0-90.5 37.5t-37.5 90.5v512q0 53 37.5 90.5t90.5 37.5zM896 170.667v466l-357.333-286q-11.333-9.333-26.667-9.333t-26.667 9.333l-357.333 286v-466q0-17.667 12.5-30.167t30.167-12.5h682.667q17.667 0 30.167 12.5t12.5 30.167zM853.333 725.334h-682.667q-6.333 0-14-2.333l355.333-284.333 355.333 284.333q-7.667 2.333-14 2.333z" />
<glyph unicode="&#xe938;" glyph-name="wallet" d="M819.2 665.6h-640v25.6l563.2 45.056v-45.056h76.8v76.8c0 56.32-45.619 95.846-101.325 87.91l-514.099-73.421c-55.757-7.987-101.376-60.57-101.376-116.89v-512c0-56.525 45.824-102.4 102.4-102.4h614.4c56.525 0 102.4 45.875 102.4 102.4v409.6c0 56.525-45.875 102.4-102.4 102.4zM742.4 306.893c-42.394 0-76.8 34.406-76.8 76.8s34.406 76.8 76.8 76.8 76.8-34.406 76.8-76.8-34.406-76.8-76.8-76.8z" />
<glyph unicode="&#xe939;" glyph-name="instagram" d="M512 867.614c136.667 0 152.854-0.52 206.826-2.983 49.904-2.278 77.005-10.616 95.043-17.623 23.889-9.285 40.942-20.378 58.852-38.288s29.003-34.962 38.286-58.852c7.010-18.038 15.348-45.139 17.625-95.041 2.462-53.973 2.983-70.16 2.983-206.828s-0.52-152.854-2.983-206.826c-2.278-49.904-10.616-77.005-17.625-95.043-9.283-23.889-20.376-40.942-38.286-58.852s-34.962-29.003-58.852-38.286c-18.038-7.010-45.139-15.348-95.043-17.625-53.963-2.462-70.15-2.983-206.826-2.983s-152.862 0.52-206.826 2.983c-49.904 2.278-77.005 10.616-95.041 17.625-23.891 9.283-40.944 20.376-58.854 38.286s-29.003 34.962-38.286 58.852c-7.010 18.038-15.348 45.139-17.625 95.041-2.462 53.973-2.983 70.16-2.983 206.828s0.52 152.854 2.983 206.826c2.278 49.904 10.616 77.005 17.625 95.043 9.283 23.889 20.376 40.942 38.286 58.852s34.962 29.003 58.854 38.288c18.036 7.007 45.137 15.346 95.039 17.623 53.973 2.462 70.16 2.983 206.828 2.983zM512 959.839c-139.008 0-156.436-0.589-211.029-3.080-54.481-2.487-91.687-11.138-124.245-23.792-33.658-13.080-62.202-30.582-90.657-59.036s-45.956-56.999-59.036-90.657c-12.654-32.559-21.305-69.764-23.792-124.245-2.491-54.591-3.078-72.021-3.078-211.029s0.587-156.438 3.078-211.029c2.487-54.481 11.138-91.687 23.792-124.245 13.080-33.656 30.582-62.202 59.036-90.657s56.999-45.956 90.657-59.036c32.559-12.654 69.764-21.305 124.245-23.792 54.593-2.491 72.021-3.078 211.029-3.078s156.438 0.587 211.029 3.078c54.481 2.487 91.687 11.138 124.245 23.792 33.658 13.080 62.202 30.582 90.657 59.036s45.956 56.999 59.036 90.657c12.654 32.559 21.305 69.764 23.792 124.245 2.491 54.591 3.080 72.021 3.080 211.029s-0.589 156.438-3.080 211.029c-2.487 54.481-11.138 91.687-23.792 124.245-13.080 33.658-30.582 62.202-59.036 90.657s-56.999 45.956-90.657 59.036c-32.559 12.654-69.764 21.305-124.245 23.792-54.591 2.491-72.021 3.080-211.029 3.080zM512 710.837c-145.16 0-262.837-117.677-262.837-262.837s117.677-262.837 262.837-262.837c145.16 0 262.837 117.677 262.837 262.837s-117.677 262.837-262.837 262.837v0zM512 277.386c-94.226 0-170.614 76.388-170.614 170.614s76.388 170.614 170.614 170.614c94.226 0 170.614-76.388 170.614-170.614s-76.388-170.614-170.614-170.614v0zM846.641 721.221c0-33.922-27.498-61.422-61.42-61.422s-61.422 27.5-61.422 61.422c0 33.922 27.5 61.42 61.422 61.42s61.42-27.498 61.42-61.42z" />
<glyph unicode="&#xe93a;" glyph-name="youtube" d="M512 855.040c-503.194 0-512-44.749-512-394.24s8.806-394.24 512-394.24 512 44.749 512 394.24-8.806 394.24-512 394.24zM676.096 443.699l-229.888-107.315c-20.122-9.318-36.608 1.126-36.608 23.347v202.138c0 22.17 16.486 32.666 36.608 23.347l229.888-107.315c20.122-9.421 20.122-24.781 0-34.202z" />
<glyph unicode="&#xe93b;" glyph-name="tw" d="M1024 755.2c-38.4-17.068-76.8-29.868-119.466-34.134 42.668 25.6 76.8 68.266 89.6 115.2-42.668-25.6-85.332-42.668-132.268-51.2-38.4 42.666-93.866 68.266-153.6 68.266-115.2 0-209.068-93.866-209.068-209.068 0-17.068 0-34.132 4.266-46.932-174.932 8.534-328.534 89.6-430.932 217.6-21.332-29.866-29.868-68.268-29.868-106.668 0-72.534 38.4-136.534 93.868-174.932-34.134 4.266-68.266 12.8-93.868 25.6 0 0 0 0 0-4.268 0-102.4 72.534-187.732 166.4-204.8-17.068-4.268-34.134-8.534-55.466-8.534-12.8 0-25.6 0-38.4 4.268 25.6-85.332 102.4-145.068 196.268-145.068-72.534-55.466-162.134-89.6-260.266-89.6-17.068 0-34.134 0-51.2 4.268 93.868-59.732 204.8-93.866 320-93.866 388.268 0 597.332 320 597.332 597.332 0 8.534 0 17.068 0 25.6 42.668 29.866 76.8 68.268 106.668 110.932z" />
<glyph unicode="&#xe93c;" glyph-name="fb" d="M968.534 960h-913.068c-29.868 0-55.466-25.6-55.466-55.466v-913.068c0-29.866 25.6-55.466 55.466-55.466h490.668v396.8h-132.266v153.6h132.266v115.2c0 132.268 81.068 204.8 200.534 204.8 55.466 0 106.668-4.266 119.466-4.266v-140.8h-81.068c-64 0-76.8-29.868-76.8-76.8v-98.132h153.6l-21.332-153.6h-132.268v-396.8h260.268c29.866 0 55.468 25.6 55.468 55.466v913.068c0 29.866-25.6 55.466-55.466 55.466z" />
<glyph unicode="&#xe93d;" glyph-name="arrow_down" horiz-adv-x="1892" d="M946.087-64l-934.957 923.826c-11.13 22.261-11.13 66.783 0 89.043s55.652 22.261 77.913 0l845.913-845.913 845.913 845.913c22.261 22.261 55.652 22.261 77.913 0s22.261-55.652 0-77.913l-912.696-934.957z" />
<glyph unicode="&#xe941;" glyph-name="lykke" horiz-adv-x="1065" d="M241.073-28.184l282.297 287.305 281.401-287.305v172.017l-281.401 287.305-282.297-287.305zM5.377 553.747h398.801l119.192-122.608h-398.801zM1041.364 553.747h-398.801v284.56l-119.192 121.693v-528.861h398.801z" />
<glyph unicode="&#xe942;" glyph-name="close" d="M810 664.667l-238-238 238-238-60-60-238 238-238-238-60 60 238 238-238 238 60 60 238-238 238 238z" />
<glyph unicode="&#xe945;" glyph-name="trading_buy" d="M896 597.333h-162.133l68.267 68.267c8.533 8.533 8.533 21.333 0 29.867s-21.333 8.533-29.867 0l-123.733-123.733 123.733-123.733c4.267-4.267 8.533-4.267 17.067-4.267s12.8 0 17.067 4.267c8.533 8.533 8.533 21.333 0 29.867l-68.267 68.267h162.133c12.8 0 21.333 8.533 21.333 21.333s-12.8 29.867-25.6 29.867zM149.333 618.667c0 12.8 8.533 21.333 21.333 21.333h256c12.8 0 21.333-8.533 21.333-21.333v-42.667h42.667v42.667c0 34.133-29.867 64-64 64h-256c-34.133 0-64-29.867-64-64v-42.667h42.667v42.667zM533.333 576h-426.667v-320c0-34.133 29.867-64 64-64 0 0 0 0 0 0h362.667c34.133 0 64 29.867 64 64v256c0 34.133-29.867 64-64 64zM554.667 256c0-12.8-8.533-21.333-21.333-21.333h-362.667c0 0 0 0 0 0-12.8 0-21.333 8.533-21.333 21.333v277.333h384c12.8 0 21.333-8.533 21.333-21.333v-256zM490.667 384c0-23.564-19.103-42.667-42.667-42.667s-42.667 19.103-42.667 42.667c0 23.564 19.103 42.667 42.667 42.667s42.667-19.103 42.667-42.667z" />
<glyph unicode="&#xe948;" glyph-name="calendar" d="M944 851.2h-134.4v108.8h-108.8v-108.8h-377.6v108.8h-108.8c0 0 0-60.8 0-108.8h-134.4c-41.6 0-80-38.4-80-80v-755.2c0-41.6 38.4-80 80-80h860.8c48 0 80 38.4 80 80v755.2c3.2 44.8-35.2 80-76.8 80zM915.2 44.8h-809.6v435.2h809.6v-435.2zM915.2 582.4h-809.6v163.2h108.8c0-48 0-108.8 0-108.8h108.8v108.8h377.6v-108.8h108.8v108.8h108.8v-163.2z" />
<glyph unicode="&#xe95e;" glyph-name="copy_thin" d="M554.667 554.667h-341.333c-46.933 0-85.333-38.4-85.333-85.333v-341.333c0-46.933 38.4-85.333 85.333-85.333h341.333c46.933 0 85.333 38.4 85.333 85.333v341.333c0 46.933-38.4 85.333-85.333 85.333zM597.333 128c0-25.6-21.333-42.667-42.667-42.667h-341.333c-25.6 0-42.667 21.333-42.667 42.667v341.333c0 25.6 21.333 42.667 42.667 42.667h341.333c25.6 0 42.667-21.333 42.667-42.667v-341.333zM810.667 810.667h-341.333c-46.933 0-85.333-38.4-85.333-85.333v-89.6h42.667v89.6c0 25.6 21.333 42.667 42.667 42.667h341.333c25.6 0 42.667-21.333 42.667-42.667v-341.333c0-25.6-17.067-42.667-42.667-42.667h-85.333v-42.667h85.333c46.933 0 85.333 38.4 85.333 85.333v341.333c0 46.933-38.4 85.333-85.333 85.333z" />
<glyph unicode="&#xe964;" glyph-name="done" horiz-adv-x="1485" d="M1438.72 952.32c-20.48 20.48-51.2 20.48-71.68 0l-849.92-849.92-430.080 430.080c-20.48 20.48-51.2 20.48-71.68 0s-20.48-51.2 0-71.68l501.76-501.76 921.6 921.6c20.48 15.36 20.48 51.2 0 71.68z" />
</font>
</defs>
</svg>
