<?xml version="1.0" encoding="UTF-8" standalone="no"?>
<svg width="64px" height="64px" viewBox="0 0 64 64" version="1.1" xmlns="http://www.w3.org/2000/svg" xmlns:xlink="http://www.w3.org/1999/xlink">
    <!-- Generator: sketchtool 44 (41411) - http://www.bohemiancoding.com/sketch -->
    <title>0FB949E9-C0AD-45B7-B235-9AD80D695DE9</title>
    <desc>Created with sketchtool.</desc>
    <defs></defs>
    <g id="Specifications" stroke="none" stroke-width="1" fill="none" fill-rule="evenodd">
        <g id="spec_actions_assets" transform="translate(-630.000000, -2365.000000)">
            <g id="Group-31" transform="translate(475.000000, 2325.000000)">
                <g id="expire_icn" transform="translate(155.000000, 40.000000)">
                    <g id="Group-20-Copy">
                        <g id="lykke_coins_icn">
                            <g id="token_design_icn">
                                <g id="comisssion_free_icn">
                                    <g>
                                        <circle id="Oval-5-Copy-4" fill="#FFAE2C" cx="32" cy="32" r="32"></circle>
                                        <path d="M45.9335938,39.6005859 L32,31.9089572 L32,10 C19.8497355,10 10,19.8497355 10,32 C10,44.1502645 19.8497355,54 32,54 C39.945455,54 46.9071396,49.7879778 50.7739943,43.4749926" id="Oval-5-Copy-4" stroke="#FFFFFF" stroke-width="2" stroke-linecap="round" stroke-linejoin="round"></path>
                                    </g>
                                </g>
                            </g>
                        </g>
                    </g>
                    <path d="M42.5,13.8134665 C41.7825611,13.399253 41.5367483,12.4818674 41.9509619,11.7644284 C42.3651755,11.0469895 43.2825611,10.8011767 44,11.2153903 C44.7174389,11.6296039 44.9632517,12.5469895 44.5490381,13.2644284 C44.1348245,13.9818674 43.2174389,14.2276801 42.5,13.8134665 Z M50.1865335,21.5 C49.7723199,20.7825611 50.0181326,19.8651755 50.7355716,19.4509619 C51.4530105,19.0367483 52.3703961,19.2825611 52.7846097,20 C53.1988233,20.7174389 52.9530105,21.6348245 52.2355716,22.0490381 C51.5181326,22.4632517 50.600747,22.2174389 50.1865335,21.5 Z M53,32 C53,31.1715729 53.6715729,30.5 54.5,30.5 C55.3284271,30.5 56,31.1715729 56,32 C56,32.8284271 55.3284271,33.5 54.5,33.5 C53.6715729,33.5 53,32.8284271 53,32 Z" id="Oval-6" fill="#FFFFFF"></path>
                </g>
            </g>
        </g>
    </g>
</svg>